<svg xmlns="http://www.w3.org/2000/svg" viewBox="0 0 982.95 174.6"><defs><style>.cls-1{fill:#527dbf;}.cls-2{fill:#ec2729;}.cls-3{fill:#fff;}.cls-4{fill:#f9bb17;}</style></defs><g id="Layer_2" data-name="Layer 2"><g id="Layer_1-2" data-name="Layer 1"><path class="cls-1" d="M53.85,107.41v59.32a4.63,4.63,0,0,1-4.63,4.64H4.63A4.63,4.63,0,0,1,0,166.73V14.33A4.63,4.63,0,0,1,4.63,9.7H51.39a4.62,4.62,0,0,1,3.84,2l39.21,35.9a4.63,4.63,0,0,0,7.68,0l39.21-35.9a4.62,4.62,0,0,1,3.84-2h46.76a4.63,4.63,0,0,1,4.63,4.63v152.4a4.63,4.63,0,0,1-4.63,4.64H147.34a4.63,4.63,0,0,1-4.63-4.64V107.41a4.63,4.63,0,0,0-8.44-2.64s-34.47,23.5-36,23.5"/><path class="cls-2" d="M98.28,128.27,141.33,11.74a4.62,4.62,0,0,1,3.84-2h46.76a4.63,4.63,0,0,1,4.63,4.63v152.4a4.63,4.63,0,0,1-4.63,4.64H147.34a4.63,4.63,0,0,1-4.63-4.64V107.41"/><path class="cls-3" d="M296.1,55.89h42.73V171.37H296.1V161q-11.09,13.64-31,13.63-23.32,0-38.11-17.32t-14.78-43.65Q212.26,87.31,227,70t38.11-17.32q19.86,0,31,13.62ZM260.65,129.1q5.66,6.24,14.9,6.24t14.89-6.24a22.16,22.16,0,0,0,5.66-15.47,22.2,22.2,0,0,0-5.66-15.48q-5.65-6.23-14.89-6.23t-14.9,6.23A22.15,22.15,0,0,0,255,113.63,22.11,22.11,0,0,0,260.65,129.1Z"/><path class="cls-3" d="M378.78,47.11a22.87,22.87,0,0,1-16.75-7,22.6,22.6,0,0,1-7-16.51A22.62,22.62,0,0,1,362,7a22.9,22.9,0,0,1,16.75-7,22.63,22.63,0,0,1,16.51,7,22.89,22.89,0,0,1,0,33A22.6,22.6,0,0,1,378.78,47.11ZM357.3,171.37V55.89H400V171.37Z"/><path class="cls-3" d="M890.12,45.48A13.77,13.77,0,0,1,880,41.23a13.81,13.81,0,0,1,0-19.91,13.8,13.8,0,0,1,10.1-4.25,13.66,13.66,0,0,1,10,4.25,13.81,13.81,0,0,1,0,19.91A13.62,13.62,0,0,1,890.12,45.48Z"/><path class="cls-3" d="M418.5,171.37V2.77h42.73v168.6Z"/><path class="cls-3" d="M517.35,128.18q5.53,11.55,23.56,11.55,10.62,0,19.63-7.39l27.94,23.55q-17.33,18.71-49,18.71-29.57,0-47.46-17.21t-17.9-43.3q0-26.32,17.44-43.88t44-17.55q26.34,0,43.31,17.2t17,43.31a61.75,61.75,0,0,1-1.84,15Zm-.69-27.49h38.8q-3.93-13.84-18.71-13.85Q521.74,86.84,516.66,100.69Z"/><path class="cls-3" d="M651.3,78.29A51.41,51.41,0,0,1,696.62,50.2V83.1a76.17,76.17,0,0,0-45.42,39.39q.06,24.44.1,48.88H608.57V55.89H651.3Z"/><path class="cls-3" d="M755.82,98.71a36.27,36.27,0,0,1,18.4,11.79q6.87,8.39,6.87,21.11,0,19.69-12.55,29.86T737,171.65q-15.62,0-27.31-7.13t-16.8-21l29.86-17.13q3.56,12.38,14.25,12.38a11,11,0,0,0,7.38-2.37,8.05,8.05,0,0,0,2.8-6.45q0-8.47-10.18-8.48h-7.3l-13.23-19.68L732.41,83.1H696.62V50.2h78V76.32Z"/><path class="cls-3" d="M841.65,88.53q16.62,2.72,26.37,13.82t9.76,27.4q0,18.66-12.56,30.28T832,171.65q-20.87,0-33.33-11.62t-12.47-30.28q0-13.23,6.45-23.07L827.91,50.2h38ZM820.1,129.75q0,11.53,11.88,11.53t11.87-11.53q0-11.53-11.87-11.53T820.1,129.75Z"/><path class="cls-3" d="M969.88,154.77q-13.07,16.88-37,16.88t-37-16.88q-13.06-16.87-13.06-45.21t13.06-45.2q13.05-16.87,37-16.88t37,16.88q13.07,16.88,13.07,45.2T969.88,154.77Zm-53.09-45.21q0,29.17,16.12,29.18T949,109.56q0-29.16-16.11-29.17T916.79,109.56Z"/><polygon class="cls-4" points="98.28 49.69 55.23 11.75 98.28 128.28 141.33 11.75 98.28 49.69"/></g></g></svg>